<?xml version="1.0" encoding="UTF-8"?>
<svg xmlns="http://www.w3.org/2000/svg" xmlns:xlink="http://www.w3.org/1999/xlink" width="260px" height="145px" viewBox="0 0 259 145" version="1.1">
<defs>
<clipPath id="clip1">
  <path d="M 1 113 L 25 113 L 25 144.945312 L 1 144.945312 Z M 1 113 "/>
</clipPath>
<clipPath id="clip2">
  <path d="M 31 113 L 64 113 L 64 144.945312 L 31 144.945312 Z M 31 113 "/>
</clipPath>
<clipPath id="clip3">
  <path d="M 73 113 L 94 113 L 94 144.945312 L 73 144.945312 Z M 73 113 "/>
</clipPath>
<clipPath id="clip4">
  <path d="M 100 112 L 127 112 L 127 144.945312 L 100 144.945312 Z M 100 112 "/>
</clipPath>
<clipPath id="clip5">
  <path d="M 132 112 L 158 112 L 158 144.945312 L 132 144.945312 Z M 132 112 "/>
</clipPath>
<clipPath id="clip6">
  <path d="M 164 112 L 169 112 L 169 144.945312 L 164 144.945312 Z M 164 112 "/>
</clipPath>
<clipPath id="clip7">
  <path d="M 177 112 L 211 112 L 211 144.945312 L 177 144.945312 Z M 177 112 "/>
</clipPath>
</defs>
<g id="surface1">
<path style=" stroke:none;fill-rule:nonzero;fill:rgb(24.313725%,34.117647%,64.313725%);fill-opacity:1;" d="M 54.132812 0.621094 L 18.652344 38.335938 L 18.503906 0.761719 L 0 0.832031 L 0.3125 81.363281 L 18.816406 81.289062 L 18.738281 60.960938 L 29.476562 49.652344 L 55.367188 81.144531 L 77.09375 81.0625 L 41.652344 36.550781 L 74.824219 0.542969 Z M 54.132812 0.621094 "/>
<path style=" stroke:none;fill-rule:nonzero;fill:rgb(24.313725%,34.117647%,64.313725%);fill-opacity:1;" d="M 140.457031 0.289062 L 140.644531 49.140625 L 100.457031 0.445312 L 85.054688 0.503906 L 85.363281 81.03125 L 103.757812 80.957031 L 103.570312 32.082031 L 143.871094 80.804688 L 159.15625 80.742188 L 158.847656 0.214844 Z M 140.457031 0.289062 "/>
<path style=" stroke:none;fill-rule:nonzero;fill:rgb(24.313725%,34.117647%,64.313725%);fill-opacity:1;" d="M 196.796875 65.300781 L 213.808594 65.230469 C 219.171875 65.210938 223.824219 64.175781 227.761719 62.128906 C 231.703125 60.085938 234.753906 57.175781 236.925781 53.410156 C 239.09375 49.644531 240.171875 45.226562 240.152344 40.164062 C 240.128906 35.03125 239.019531 30.605469 236.820312 26.894531 C 234.621094 23.179688 231.546875 20.320312 227.59375 18.300781 C 223.636719 16.285156 218.980469 15.285156 213.617188 15.304688 L 196.605469 15.371094 Z M 178.238281 80.671875 L 177.925781 0.144531 L 214.476562 0 C 223.210938 -0.0351562 230.917969 1.605469 237.597656 4.917969 C 244.277344 8.226562 249.503906 12.867188 253.285156 18.832031 C 257.0625 24.800781 258.96875 31.886719 259 40.09375 C 259.03125 48.222656 257.179688 55.308594 253.449219 61.339844 C 249.71875 67.375 244.527344 72.074219 237.871094 75.433594 C 231.21875 78.796875 223.523438 80.492188 214.789062 80.527344 Z M 178.238281 80.671875 "/>
<g clip-path="url(#clip1)" clip-rule="nonzero">
<path style=" stroke:none;fill-rule:nonzero;fill:rgb(24.313725%,34.117647%,64.313725%);fill-opacity:1;" d="M 13.214844 144.992188 C 10.886719 145.003906 8.660156 144.632812 6.527344 143.878906 C 4.394531 143.125 2.742188 142.15625 1.578125 140.96875 L 2.863281 138.414062 C 3.96875 139.484375 5.457031 140.378906 7.320312 141.101562 C 9.183594 141.828125 11.148438 142.183594 13.203125 142.175781 C 15.167969 142.167969 16.773438 141.917969 18.007812 141.421875 C 19.242188 140.921875 20.144531 140.253906 20.726562 139.417969 C 21.300781 138.582031 21.589844 137.652344 21.585938 136.640625 C 21.582031 135.417969 21.226562 134.433594 20.523438 133.691406 C 19.820312 132.949219 18.902344 132.363281 17.769531 131.933594 C 16.632812 131.507812 15.382812 131.132812 14.007812 130.808594 C 12.636719 130.484375 11.261719 130.140625 9.890625 129.773438 C 8.519531 129.40625 7.257812 128.910156 6.109375 128.289062 C 4.957031 127.667969 4.03125 126.84375 3.328125 125.816406 C 2.621094 124.792969 2.269531 123.441406 2.261719 121.773438 C 2.257812 120.222656 2.660156 118.796875 3.472656 117.496094 C 4.289062 116.195312 5.542969 115.144531 7.238281 114.347656 C 8.9375 113.554688 11.109375 113.148438 13.757812 113.136719 C 15.519531 113.132812 17.265625 113.371094 18.996094 113.855469 C 20.722656 114.34375 22.214844 115.015625 23.472656 115.875 L 22.367188 118.519531 C 21.019531 117.628906 19.59375 116.976562 18.085938 116.566406 C 16.582031 116.15625 15.128906 115.949219 13.730469 115.957031 C 11.847656 115.964844 10.300781 116.226562 9.082031 116.734375 C 7.859375 117.25 6.960938 117.929688 6.386719 118.78125 C 5.804688 119.636719 5.523438 120.597656 5.523438 121.671875 C 5.527344 122.894531 5.882812 123.875 6.589844 124.621094 C 7.289062 125.363281 8.214844 125.941406 9.367188 126.355469 C 10.515625 126.765625 11.773438 127.132812 13.144531 127.457031 C 14.515625 127.78125 15.882812 128.132812 17.238281 128.515625 C 18.59375 128.898438 19.851562 129.394531 21 130 C 22.148438 130.605469 23.078125 131.417969 23.78125 132.425781 C 24.484375 133.4375 24.839844 134.765625 24.847656 136.402344 C 24.855469 137.925781 24.441406 139.335938 23.613281 140.636719 C 22.785156 141.9375 21.511719 142.988281 19.800781 143.78125 C 18.089844 144.578125 15.894531 144.984375 13.214844 144.992188 "/>
</g>
<g clip-path="url(#clip2)" clip-rule="nonzero">
<path style=" stroke:none;fill-rule:nonzero;fill:rgb(24.313725%,34.117647%,64.313725%);fill-opacity:1;" d="M 47.53125 141.90625 C 49.40625 141.902344 51.144531 141.574219 52.734375 140.925781 C 54.328125 140.277344 55.710938 139.363281 56.882812 138.179688 C 58.054688 137 58.964844 135.621094 59.613281 134.054688 C 60.265625 132.488281 60.582031 130.765625 60.578125 128.886719 C 60.570312 127.007812 60.238281 125.285156 59.574219 123.71875 C 58.910156 122.15625 57.992188 120.789062 56.808594 119.613281 C 55.628906 118.441406 54.238281 117.539062 52.644531 116.902344 C 51.042969 116.269531 49.308594 115.953125 47.429688 115.960938 C 45.554688 115.96875 43.8125 116.296875 42.207031 116.941406 C 40.597656 117.589844 39.207031 118.507812 38.035156 119.6875 C 36.863281 120.871094 35.945312 122.246094 35.28125 123.8125 C 34.617188 125.382812 34.289062 127.105469 34.292969 128.984375 C 34.300781 130.835938 34.644531 132.546875 35.320312 134.125 C 35.996094 135.703125 36.925781 137.082031 38.109375 138.253906 C 39.289062 139.429688 40.6875 140.332031 42.296875 140.964844 C 43.910156 141.601562 45.652344 141.917969 47.53125 141.90625 M 47.542969 144.859375 C 45.1875 144.871094 43.003906 144.480469 40.988281 143.699219 C 38.976562 142.917969 37.226562 141.808594 35.746094 140.367188 C 34.265625 138.925781 33.113281 137.246094 32.285156 135.324219 C 31.457031 133.402344 31.039062 131.292969 31.035156 128.996094 C 31.023438 126.699219 31.421875 124.589844 32.238281 122.664062 C 33.046875 120.738281 34.1875 119.046875 35.65625 117.59375 C 37.128906 116.144531 38.859375 115.015625 40.851562 114.21875 C 42.847656 113.421875 45.035156 113.015625 47.417969 113.007812 C 49.773438 113 51.953125 113.386719 53.949219 114.167969 C 55.949219 114.953125 57.6875 116.054688 59.171875 117.480469 C 60.652344 118.90625 61.800781 120.585938 62.632812 122.523438 C 63.457031 124.460938 63.875 126.574219 63.882812 128.871094 C 63.894531 131.167969 63.492188 133.289062 62.679688 135.230469 C 61.867188 137.171875 60.726562 138.859375 59.257812 140.296875 C 57.789062 141.734375 56.054688 142.851562 54.0625 143.648438 C 52.070312 144.449219 49.898438 144.851562 47.542969 144.859375 "/>
</g>
<g clip-path="url(#clip3)" clip-rule="nonzero">
<path style=" stroke:none;fill-rule:nonzero;fill:rgb(24.313725%,34.117647%,64.313725%);fill-opacity:1;" d="M 73.15625 144.496094 L 73.03125 113.179688 L 76.339844 113.164062 L 76.445312 141.617188 L 93.96875 141.550781 L 93.984375 144.414062 Z M 73.15625 144.496094 "/>
</g>
<g clip-path="url(#clip4)" clip-rule="nonzero">
<path style=" stroke:none;fill-rule:nonzero;fill:rgb(24.313725%,34.117647%,64.313725%);fill-opacity:1;" d="M 113.292969 144.605469 C 109.296875 144.621094 106.152344 143.488281 103.847656 141.195312 C 101.542969 138.910156 100.386719 135.515625 100.367188 131.011719 L 100.300781 113.074219 L 103.605469 113.0625 L 103.671875 130.863281 C 103.6875 134.5625 104.535156 137.289062 106.207031 139.042969 C 107.886719 140.792969 110.242188 141.667969 113.28125 141.65625 C 116.351562 141.640625 118.71875 140.753906 120.378906 138.988281 C 122.042969 137.21875 122.863281 134.488281 122.851562 130.789062 L 122.785156 112.984375 L 126 112.972656 L 126.070312 130.910156 C 126.089844 135.417969 124.960938 138.820312 122.691406 141.125 C 120.417969 143.429688 117.285156 144.589844 113.292969 144.605469 "/>
</g>
<g clip-path="url(#clip5)" clip-rule="nonzero">
<path style=" stroke:none;fill-rule:nonzero;fill:rgb(24.313725%,34.117647%,64.313725%);fill-opacity:1;" d="M 143.332031 144.21875 L 143.222656 115.769531 L 132.226562 115.8125 L 132.214844 112.949219 L 157.515625 112.851562 L 157.523438 115.714844 L 146.53125 115.757812 L 146.640625 144.207031 Z M 143.332031 144.21875 "/>
</g>
<g clip-path="url(#clip6)" clip-rule="nonzero">
<path style=" stroke:none;fill-rule:nonzero;fill:rgb(24.313725%,34.117647%,64.313725%);fill-opacity:1;" d="M 164.699219 144.140625 L 164.578125 112.824219 L 167.882812 112.8125 L 168.003906 144.125 Z M 164.699219 144.140625 "/>
</g>
<g clip-path="url(#clip7)" clip-rule="nonzero">
<path style=" stroke:none;fill-rule:nonzero;fill:rgb(24.313725%,34.117647%,64.313725%);fill-opacity:1;" d="M 193.652344 141.34375 C 195.53125 141.335938 197.265625 141.007812 198.855469 140.359375 C 200.445312 139.714844 201.832031 138.800781 203.003906 137.613281 C 204.175781 136.429688 205.085938 135.058594 205.734375 133.488281 C 206.386719 131.921875 206.707031 130.195312 206.699219 128.316406 C 206.691406 126.4375 206.359375 124.71875 205.695312 123.152344 C 205.035156 121.59375 204.113281 120.222656 202.933594 119.050781 C 201.75 117.875 200.359375 116.972656 198.761719 116.335938 C 197.167969 115.703125 195.429688 115.386719 193.554688 115.394531 C 191.675781 115.402344 189.933594 115.730469 188.328125 116.375 C 186.71875 117.023438 185.332031 117.9375 184.160156 119.121094 C 182.984375 120.304688 182.066406 121.679688 181.402344 123.25 C 180.738281 124.816406 180.40625 126.542969 180.417969 128.421875 C 180.421875 130.269531 180.765625 131.980469 181.441406 133.558594 C 182.117188 135.140625 183.046875 136.515625 184.230469 137.6875 C 185.410156 138.863281 186.804688 139.765625 188.421875 140.398438 C 190.03125 141.035156 191.777344 141.347656 193.652344 141.34375 M 193.664062 144.292969 C 191.3125 144.304688 189.125 143.917969 187.109375 143.132812 C 185.097656 142.355469 183.347656 141.238281 181.867188 139.800781 C 180.386719 138.359375 179.230469 136.675781 178.40625 134.757812 C 177.578125 132.835938 177.160156 130.730469 177.152344 128.433594 C 177.144531 126.136719 177.546875 124.023438 178.355469 122.097656 C 179.167969 120.167969 180.3125 118.480469 181.777344 117.03125 C 183.246094 115.574219 184.980469 114.453125 186.972656 113.652344 C 188.96875 112.855469 191.160156 112.453125 193.539062 112.441406 C 195.894531 112.433594 198.074219 112.820312 200.074219 113.601562 C 202.070312 114.382812 203.8125 115.488281 205.292969 116.914062 C 206.773438 118.339844 207.925781 120.023438 208.753906 121.957031 C 209.578125 123.890625 209.996094 126.007812 210.007812 128.304688 C 210.015625 130.601562 209.613281 132.71875 208.804688 134.660156 C 207.988281 136.605469 206.851562 138.292969 205.378906 139.730469 C 203.910156 141.167969 202.179688 142.285156 200.183594 143.085938 C 198.191406 143.882812 196.019531 144.285156 193.664062 144.292969 "/>
</g>
<path style=" stroke:none;fill-rule:nonzero;fill:rgb(24.313725%,34.117647%,64.313725%);fill-opacity:1;" d="M 219.273438 143.925781 L 219.152344 112.609375 L 221.878906 112.601562 L 243.574219 139.71875 L 242.144531 139.722656 L 242.039062 112.523438 L 245.300781 112.511719 L 245.421875 143.828125 L 242.695312 143.835938 L 221.046875 116.71875 L 222.476562 116.714844 L 222.582031 143.914062 Z M 219.273438 143.925781 "/>
</g>
</svg>
